<svg viewBox="0 0 512 512" xmlns="http://www.w3.org/2000/svg"><path d="m346 301c-8.277344 0-15 6.722656-15 15s6.722656 15 15 15 15-6.722656 15-15-6.722656-15-15-15zm0 0"/><path d="m256 0c-140.609375 0-256 115.390625-256 256s115.390625 256 256 256 256-115.390625 256-256-115.390625-256-256-256zm-75 358.238281v32.761719h-30v-32.761719c-17.421875-6.214843-30-22.707031-30-42.238281s12.578125-36.023438 30-42.238281v-152.761719h30v152.761719c17.421875 6.214843 30 22.707031 30 42.238281s-12.578125 36.023438-30 42.238281zm90 32.761719h-30v-152.761719c-17.421875-6.214843-30-22.707031-30-42.238281s12.578125-36.023438 30-42.238281v-32.761719h30v32.761719c17.421875 6.214843 30 22.707031 30 42.238281s-12.578125 36.023438-30 42.238281zm90-32.761719v32.761719h-30v-32.761719c-17.421875-6.214843-30-22.707031-30-42.238281s12.578125-36.023438 30-42.238281v-152.761719h30v152.761719c17.421875 6.214843 30 22.707031 30 42.238281s-12.578125 36.023438-30 42.238281zm0 0"/><path d="m256 181c-8.277344 0-15 6.722656-15 15s6.722656 15 15 15 15-6.722656 15-15-6.722656-15-15-15zm0 0"/><path d="m166 301c-8.277344 0-15 6.722656-15 15s6.722656 15 15 15 15-6.722656 15-15-6.722656-15-15-15zm0 0"/></svg>