<svg viewBox="0 0 512 512" xmlns="http://www.w3.org/2000/svg"><path d="m377.054688 165.664062-47.285157 15.996094-6.460937-5.464844c-9.636719-8.144531-20.359375-14.386718-31.902344-18.558593l-7.953125-2.871094-9.757813-48.765625h-35.390624l-9.757813 48.765625-7.953125 2.871094c-11.542969 4.175781-22.265625 10.414062-31.902344 18.558593l-6.460937 5.464844-47.285157-15.996094-17.695312 30.675782 37.164062 32.648437-1.496093 8.335938c-1.097657 6.078125-1.917969 12.289062-1.917969 18.675781s.835938 12.582031 1.917969 18.691406l1.496093 8.320313-37.164062 32.648437 17.695312 30.675782 47.269532-15.996094 6.476562 5.464844c9.652344 8.160156 20.390625 14.398437 31.902344 18.558593l7.957031 2.871094 9.753907 48.765625h35.390624l9.757813-48.765625 7.953125-2.871094c11.515625-4.160156 22.25-10.398437 31.902344-18.558593l6.476562-5.464844 47.269532 15.996094 17.695312-30.675782-37.160156-32.648437 1.492187-8.320313c1.082031-6.109375 1.917969-12.304687 1.917969-18.691406s-.820312-12.597656-1.917969-18.675781l-1.496093-8.335938 37.164062-32.652343zm-121.054688 135.335938c-24.8125 0-45-20.1875-45-45s20.1875-45 45-45 45 20.1875 45 45-20.1875 45-45 45zm0 0"/><path d="m256 0c-140.609375 0-256 115.390625-256 256s115.390625 256 256 256 256-115.390625 256-256-115.390625-256-256-256zm135 256c0 4.878906-.351562 9.933594-1.070312 15.496094l43.109374 37.867187-42.304687 73.273438-54.828125-18.5625c-8.230469 6.140625-17.035156 11.25-26.292969 15.308593l-11.308593 56.617188h-84.609376l-11.308593-56.617188c-9.257813-4.058593-18.0625-9.167968-26.292969-15.308593l-54.828125 18.5625-42.304687-73.273438 43.109374-37.863281c-.71875-5.566406-1.070312-10.621094-1.070312-15.5 0-4.894531.335938-9.945312 1.070312-15.496094l-43.109374-37.867187 42.304687-73.273438 54.8125 18.546875c8.230469-6.125 17.035156-11.234375 26.308594-15.292968l11.308593-56.617188h84.609376l11.308593 56.617188c9.273438 4.058593 18.074219 9.167968 26.308594 15.292968l54.8125-18.546875 42.304687 73.273438-43.109374 37.863281c.734374 5.554688 1.070312 10.605469 1.070312 15.5zm0 0"/><path d="m256 241c-8.277344 0-15 6.722656-15 15s6.722656 15 15 15 15-6.722656 15-15-6.722656-15-15-15zm0 0"/></svg>