<svg viewBox="0 0 512 512" xmlns="http://www.w3.org/2000/svg"><path d="m344.023438 241h16.976562v15c0 28.035156-10.914062 54.402344-30.746094 74.253906-19.851562 19.832032-46.21875 30.746094-74.253906 30.746094-57.628906 0-104.722656-46.875-105-104.503906v-.070313c0-28.316406 10.914062-54.828125 30.746094-74.679687 28.492187-28.460938 72.496094-38.054688 109.96875-24.519532l17.019531-25.53125c-16.582031-7.035156-34.542969-10.695312-52.734375-10.695312-36.0625 0-69.960938 14.046875-95.464844 39.535156-25.488281 25.503906-39.535156 59.402344-39.535156 95.464844 0 74.441406 60.558594 135 135 135 36.0625 0 69.960938-14.046875 95.464844-39.535156 25.488281-25.503906 39.535156-59.402344 39.535156-95.464844v-15h16.976562l-31.976562-47.960938zm0 0"/><path d="m256 0c-140.609375 0-256 115.390625-256 256s115.390625 256 256 256 256-115.390625 256-256-115.390625-256-256-256zm164.324219 271c-3.425781 38.40625-20.050781 74.078125-47.648438 101.675781-31.15625 31.15625-72.597656 48.324219-116.675781 48.324219-90.980469 0-165-74.019531-165-165 0-44.078125 17.167969-85.519531 48.324219-116.675781s72.597656-48.324219 116.675781-48.324219c28.855469 0 57.246094 7.558594 82.117188 21.855469l13.902343 7.996093-49.730469 74.605469-11.9375-6.183593c-28.109374-14.542969-64.628906-9.066407-87.394531 13.683593-14.148437 14.164063-21.957031 33.148438-21.957031 53.453125.21875 41.132813 33.851562 74.589844 75 74.589844 20.023438 0 38.878906-7.808594 53.042969-21.957031 10.5625-10.5625 17.578125-23.730469 20.464843-38.042969h-41.53125l88.023438-132.039062 89.023438 132.039062zm0 0"/></svg>